HIERARCHY
ROOT root     
{
	OFFSET 0.0000 0.0000 0.0000
	CHANNELS 6 Xposition Yposition Zposition Zrotation Yrotation Xrotation
	JOINT pelvis   
	{
		OFFSET 0.0000 0.0000 0.0000
		CHANNELS 3 Zrotation Yrotation Xrotation
		JOINT thorax   
		{
			OFFSET 0.0000 23.0750 -5.0000
			CHANNELS 3 Zrotation Yrotation Xrotation
			JOINT rclavicle
			{
				OFFSET 0.0000 28.0009 0.0000
				CHANNELS 3 Zrotation Yrotation Xrotation
				JOINT rhumerus 
				{
					OFFSET -18.5725 5.5939 0.0000
					CHANNELS 3 Zrotation Yrotation Xrotation
					JOINT rradius  
					{
						OFFSET -24.8459 0.0000 0.0000
						CHANNELS 3 Zrotation Yrotation Xrotation
						JOINT rhand    
						{
							OFFSET -24.5477 0.0000 0.0000
							CHANNELS 3 Zrotation Yrotation Xrotation
							End Site
							{
								OFFSET -8.1826 0.0000 0.0000
							}
						}
					}
				}
			}
			JOINT lclavicle
			{
				OFFSET 0.0000 28.0009 0.0000
				CHANNELS 3 Zrotation Yrotation Xrotation
				JOINT lhumerus 
				{
					OFFSET 18.5725 5.5939 0.0000
					CHANNELS 3 Zrotation Yrotation Xrotation
					JOINT lradius  
					{
						OFFSET 24.8459 0.0000 0.0000
						CHANNELS 3 Zrotation Yrotation Xrotation
						JOINT lhand    
						{
							OFFSET 24.5477 0.0000 0.0000
							CHANNELS 3 Zrotation Yrotation Xrotation
							End Site
							{
								OFFSET 8.1826 0.0000 0.0000
							}
						}
					}
				}
			}
			JOINT head     
			{
				OFFSET 0.0000 35.2030 0.0000
				CHANNELS 3 Zrotation Yrotation Xrotation
				End Site
				{
					OFFSET 0.0000 11.7343 0.0000
				}
			}
		}
		JOINT rfemur   
		{
			OFFSET -8.2817 0.0000 0.0000
			CHANNELS 3 Zrotation Yrotation Xrotation
			JOINT rtibia   
			{
				OFFSET 0.0000 -43.3627 0.0000
				CHANNELS 3 Zrotation Yrotation Xrotation
				JOINT rfoot    
				{
					OFFSET 0.0000 -38.2947 0.0000
					CHANNELS 3 Zrotation Yrotation Xrotation
					JOINT rtoes    
					{
						OFFSET 0.0000 0.0000 16.6054
						CHANNELS 3 Zrotation Yrotation Xrotation
						End Site
						{
							OFFSET 0.0000 0.0000 5.5351
						}
					}
				}
			}
		}
		JOINT lfemur   
		{
			OFFSET 8.2817 0.0000 0.0000
			CHANNELS 3 Zrotation Yrotation Xrotation
			JOINT ltibia   
			{
				OFFSET 0.0000 -43.3627 0.0000
				CHANNELS 3 Zrotation Yrotation Xrotation
				JOINT lfoot    
				{
					OFFSET 0.0000 -38.2947 0.0000
					CHANNELS 3 Zrotation Yrotation Xrotation
					JOINT ltoes    
					{
						OFFSET 0.0000 0.0000 16.6054
						CHANNELS 3 Zrotation Yrotation Xrotation
						End Site
						{
							OFFSET 0.0000 0.0000 5.5351
						}
					}
				}
			}
		}
	}
}
MOTION
Frames: 24
Frame Time: .0333333
23.945 84.374 6.464 11.5672 -62.5486 10.792 0 -0 0 3.1208 10.0232 11.4925 -15.5603 -6.09934 2.46393e-06 -26.0423 47.9892 -125.024 1.74392e-08 3.30504 6.04476e-07 -14.4914 16.0264 -2.05077 1.16556 6.85139 -3.43306e-06 -60.1285 15.5349 10.3503 180 -46.016 -180 5.70309 -1.0379 -0.0517003 9.87596 -6.89268 -32.2171 2.22799 -38.3882 -36.6522 -0 -0 32.5648 1.83388e-05 -12.5582 5.40272 -1.20158 -5.09016e-07 -68.2892 -6.16113 -4.67603 -40.1514 -0 -0 29.043 -2.08131e-06 8.94403 6.72277 1.05551 -6.29108e-08 -40.4866 
23.99 84.415 6.4969 11.692 -62.2761 10.8904 0 -0 0 3.15047 10.1231 11.3822 -16.9196 -6.76101 1.52781e-06 -26.327 47.5541 -129.562 1.34165e-08 2.54425 6.04167e-07 -15.7757 16.4479 -2.29429 1.30736 7.19429 -3.03376e-06 -60.6781 15.8127 10.0878 180 -45.8841 -180 5.61635 -1.1419 -0.0560007 10.0728 -6.83211 -32.2618 2.44832 -38.8738 -36.8976 -0 -0 32.3938 -2.52334e-05 -12.3233 5.49791 -1.199 -8.02141e-08 -68.3399 -6.25096 -4.82132 -40.2367 -0 -0 28.7655 -1.49335e-06 8.75335 6.92643 1.06379 4.5816e-06 -40.3847 
24.034 84.453 6.5279 11.7688 -62.0232 11.0313 0 -0 0 3.22465 10.1539 11.3031 -18.2172 -7.57949 3.74585e-05 -26.4446 47.511 -134.108 -0 2.33645 -0 -16.9809 16.8727 -2.53669 1.35105 7.58284 3.18004e-06 -61.1898 16.0802 9.8314 180 -45.7437 -180 5.55221 -1.24521 -0.0604001 10.2567 -6.73235 -32.2497 2.68574 -39.3136 -37.1409 -0 -0 32.2208 1.52776e-05 -12.1092 5.59896 -1.19921 4.72656e-06 -68.3947 -6.32324 -4.93868 -40.333 -0 -0 28.5111 5.31408e-06 8.558 7.10885 1.0669 -1.167e-06 -40.2946 
24.077 84.49 6.5573 11.7942 -61.7947 11.2155 0 -0 0 3.3463 10.1193 11.2552 -19.4123 -8.52876 -5.20609e-05 -26.5525 47.8541 -138.821 0 2.61865 0 -17.9355 17.3692 -2.76171 1.28165 8.00298 2.80571e-06 -61.6402 16.3395 9.57639 180 -45.5918 -180 5.5178 -1.34538 -0.0647992 10.4208 -6.60114 -32.1752 2.93284 -39.6944 -37.3769 -0 -0 32.0421 2.01759e-05 -11.9263 5.71133 -1.20411 -5.31957e-06 -68.4539 -6.3758 -5.03203 -40.4369 -0 -0 28.2762 -6.46431e-06 8.36921 7.27346 1.0671 -5.71227e-06 -40.215 
24.119 84.526 6.5851 11.7768 -61.596 11.43 0 -0 0 3.5078 10.0357 11.2335 -20.406 -9.5649 -7.81329e-05 -26.9805 48.4404 -144.032 0 3.08656 0 -18.4489 18.158 -2.9732 1.1134 8.42507 -2.80118e-07 -62.0413 16.5985 9.31935 180 -45.4329 -180 5.51443 -1.44279 -0.0695003 10.5694 -6.45753 -32.0283 3.18138 -40.0092 -37.5957 -0 -0 31.854 2.22665e-05 -11.7805 5.8359 -1.21489 -8.73795e-06 -68.513 -6.40631 -5.10634 -40.5435 -0 -0 28.0589 2.34247e-06 8.19775 7.42232 1.0662 4.46632e-06 -40.1472 
24.163 84.558 6.612 11.7164 -61.4289 11.6704 0 -0 0 3.67054 9.9564 11.2312 -20.9636 -10.5578 -4.4991e-05 -28.0198 48.9574 -148.739 1.84188e-08 3.49021 6.04549e-07 -18.7927 19.0771 -3.18566 0.950982 8.78907 -1.09249e-07 -62.4948 16.8734 9.08442 180 -45.2847 -180 5.52691 -1.55211 -0.0748986 10.7496 -6.35087 -31.8036 3.4218 -40.2552 -37.7971 -0 -0 31.6731 -1.40022e-05 -11.6716 5.96302 -1.22942 -4.18145e-07 -68.5673 -6.41521 -5.16748 -40.6533 -0 -0 27.8718 -8.42416e-07 8.05236 7.54676 1.0644 1.70283e-06 -40.0838 
24.211 84.585 6.6371 11.6236 -61.2958 11.921 0 -0 0 3.8311 9.88113 11.2609 -21.1664 -11.4361 -9.63353e-06 -29.2565 49.5293 -151.788 0 4.39553 0 -19.184 19.3888 -3.30736 0.798612 9.10029 1.82159e-07 -62.9906 17.1459 8.87768 180 -45.1498 -180 5.55874 -1.66896 -0.0809968 10.9547 -6.2871 -31.505 3.64596 -40.4314 -37.9747 -0 -0 31.5014 -1.58651e-05 -11.6008 6.09091 -1.24781 -3.44783e-06 -68.6099 -6.40246 -5.22001 -40.7653 -0 -0 27.7175 -4.6986e-06 7.94128 7.64777 1.0636 7.61163e-06 -40.0239 
24.263 84.607 6.6615 11.4964 -61.1968 12.1838 0 -0 0 3.98482 9.82004 11.3093 -20.9804 -12.2436 -9.45991e-05 -31.2673 49.7248 -155.424 -0 4.54944 -0 -18.9969 20.4534 -3.45797 0.667603 9.33042 3.233e-08 -63.529 17.4302 8.70022 180 -45.0316 -180 5.60818 -1.79174 -0.0878018 11.1789 -6.28504 -31.1184 3.85147 -40.5373 -38.1326 -0 -0 31.3443 -2.96214e-05 -11.5645 6.21696 -1.2694 2.09657e-06 -68.6401 -6.36804 -5.26782 -40.881 -0 -0 27.5972 -1.47723e-07 7.8705 7.72395 1.06442 -6.44417e-06 -39.9631 
24.321 84.621 6.6846 11.3455 -61.136 12.4443 0 -0 0 4.11677 9.78171 11.3885 -20.4495 -12.8798 8.44012e-05 -33.4987 49.6948 -157.62 2.49494e-08 4.7209 6.05258e-07 -18.7965 21.2052 -3.54933 0.590803 9.48432 -1.98438e-08 -64.1249 17.7063 8.56906 180 -44.9424 -180 5.66879 -1.92105 -0.0950951 11.4284 -6.35386 -30.6508 4.03297 -40.5787 -38.2693 -0 -0 31.2068 -2.60264e-05 -11.5583 6.33652 -1.293 7.48672e-06 -68.654 -6.31466 -5.31223 -40.9993 -0 -0 27.5185 1.14472e-06 7.84293 7.77418 1.06748 -8.33081e-07 -39.9012 
24.384 84.63 6.7068 11.1719 -61.1124 12.7053 0 -0 0 4.22888 9.7597 11.4925 -19.6598 -13.3312 -4.52592e-05 -35.7416 49.5046 -158.283 0 5.00606 0 -18.6084 21.5854 -3.57758 0.554802 9.56069 5.21159e-07 -64.7472 17.9714 8.4819 180 -44.883 -180 5.74051 -2.05091 -0.102798 11.6854 -6.49396 -30.0979 4.19093 -40.56 -38.387 -0 -0 31.0905 1.51276e-06 -11.5751 6.44898 -1.31792 -1.767e-07 -68.6553 -6.2437 -5.35391 -41.1206 -0 -0 27.4779 -3.46258e-06 7.85955 7.7997 1.07318 -1.29878e-06 -39.8368 
24.451 84.634 6.728 10.9852 -61.1294 12.9582 0 -0 0 4.32863 9.73668 11.6228 -18.6887 -13.6407 -8.95751e-05 -37.9937 49.1737 -158.087 0 5.27238 0 -18.2252 21.8634 -3.54885 0.530799 9.57285 -2.21161e-07 -65.3499 18.217 8.43268 180 -44.8518 -180 5.82426 -2.17204 -0.110501 11.9243 -6.69244 -29.4592 4.3265 -40.4875 -38.4876 -0 -0 30.9928 1.41456e-05 -11.6091 6.55638 -1.34381 -7.47687e-06 -68.645 -6.15868 -5.39003 -41.2434 -0 -0 27.4722 6.10754e-06 7.9177 7.80463 1.08201 -1.09756e-06 -39.7715 
24.521 84.632 6.7484 10.7845 -61.184 13.2042 0 -0 0 4.41142 9.71115 11.7771 -17.5674 -13.7968 2.33724e-05 -40.1036 48.7778 -156.669 -0 5.69971 -0 -17.8272 21.8659 -3.47055 0.523003 9.52112 -1.69164e-07 -65.9213 18.4386 8.42248 180 -44.8518 -180 5.91325 -2.28332 -0.117902 12.14 -6.94551 -28.7399 4.44203 -40.3693 -38.5768 -0 -0 30.9145 1.95116e-05 -11.6501 6.65596 -1.36898 -2.36849e-06 -68.6246 -6.0634 -5.41738 -41.3674 -0 -0 27.5006 3.78934e-06 8.0126 7.78912 1.09289 -2.30696e-06 -39.7043 
24.593 84.626 6.7677 10.5782 -61.2791 13.4405 0 -0 0 4.48508 9.66318 11.9562 -16.4068 -13.8412 2.94098e-06 -41.9096 48.4646 -154.244 0 6.44356 0 -17.3704 21.618 -3.34108 0.500799 9.42371 -5.57334e-07 -66.4146 18.6271 8.44272 180 -44.8792 -180 6.00782 -2.37536 -0.124699 12.3079 -7.23313 -27.9466 4.54151 -40.2168 -38.6589 -0 -0 30.854 1.48123e-05 -11.6887 6.7479 -1.39261 2.88072e-06 -68.6013 -5.9632 -5.43052 -41.4928 -0 -0 27.5621 -4.91983e-06 8.13695 7.75491 1.10529 1.93396e-06 -39.6371 
24.667 84.615 6.786 10.371 -61.4122 13.6632 0 -0 0 4.53485 9.60241 12.1567 -15.2064 -13.737 1.86779e-05 -43.133 48.3021 -149.933 0 7.84989 0 -17.2551 20.7567 -3.18353 0.491497 9.27381 -4.19011e-07 -66.8475 18.785 8.4959 180 -44.9338 -180 6.09652 -2.45345 -0.1307 12.441 -7.55318 -27.0938 4.62838 -40.0402 -38.7411 -0 -0 30.8204 -2.76753e-05 -11.7145 6.82724 -1.41205 -3.81466e-05 -68.5747 -5.86386 -5.42416 -41.624 -0 -0 27.6588 -5.38763e-06 8.282 7.70072 1.11739 -4.74856e-06 -39.5717 
24.743 84.597 6.8032 10.1665 -61.5824 13.8708 0 -0 0 4.5609 9.52087 12.3783 -14.0733 -13.4719 7.87356e-06 -43.3008 48.364 -143.227 5.50924e-08 10.3023 6.11131e-07 -17.6751 19.0029 -2.9813 0.488505 9.0834 4.22458e-07 -67.2039 18.9075 8.57938 180 -45.0135 -180 6.17611 -2.5139 -0.1356 12.5345 -7.88928 -26.2004 4.70786 -39.85 -38.8336 -0 -0 30.8158 2.07195e-05 -11.7173 6.88935 -1.42515 2.04672e-05 -68.5462 -5.77081 -5.39309 -41.7625 -0 -0 27.7922 3.77198e-06 8.43842 7.62514 1.1277 -2.00008e-06 -39.5099 
24.822 84.572 6.8188 9.96684 -61.7831 14.0665 0 -0 0 4.54824 9.43451 12.6102 -13.0045 -12.9519 1.054e-05 -41.9336 48.3803 -133.522 -0 14.022 -0 -18.8459 16.0562 -2.68175 0.524498 8.83284 -2.221e-07 -67.5174 19.008 8.68665 180 -45.1161 -180 6.23469 -2.56636 -0.139797 12.6086 -8.24314 -25.2766 4.78379 -39.6529 -38.9436 -0 -0 30.8465 -2.52824e-05 -11.6921 6.92973 -1.43017 1.25086e-05 -68.5175 -5.68863 -5.33197 -41.9121 -0 -0 27.9654 -3.50992e-06 8.59701 7.52515 1.1343 1.21467e-08 -39.4525 
24.901 84.54 6.8329 9.77846 -62.0185 14.2471 0 -0 0 4.5034 9.33001 12.8522 -12.0565 -12.2282 -7.76523e-05 -39.268 48.0177 -122.512 0 18.5797 0 -20.2735 12.4453 -2.23355 0.569711 8.53759 7.31232e-07 -67.7535 19.0854 8.80562 180 -45.232 180 6.27486 -2.60659 -0.142902 12.6553 -8.59191 -24.345 4.85957 -39.4534 -39.0755 -0 -0 30.9099 3.21762e-05 -11.6334 6.94982 -1.42705 1.61308e-05 -68.4933 -5.62156 -5.23627 -42.0734 -0 -0 28.1733 2.99204e-06 8.7509 7.40446 1.13639 6.33462e-07 -39.4022 
24.98 84.502 6.8453 9.60182 -62.2882 14.4177 0 -0 0 4.43822 9.18855 13.1071 -11.247 -11.4524 9.37114e-06 -36.1337 47.2564 -112.391 0 23.3383 0 -21.4767 8.99972 -1.71011 0.581402 8.23016 7.59841e-07 -67.8682 19.1263 8.92796 180 -45.3482 -180 6.30293 -2.62866 -0.144795 12.6605 -8.90866 -23.4239 4.93793 -39.2529 -39.2304 -0 -0 30.9992 4.42658e-05 -11.5446 6.9538 -1.41668 2.17779e-05 -68.4767 -5.57177 -5.10214 -42.2467 -0 -0 28.4083 5.43686e-06 8.89499 7.26685 1.1341 -2.41605e-06 -39.361 
25.058 84.46 6.8559 9.43627 -62.586 14.581 0 -0 0 4.35506 9.00577 13.3742 -10.5665 -10.7004 9.88049e-06 -32.9703 46.2799 -103.828 1.65943e-07 28.0717 6.63786e-07 -22.4045 6.01265 -1.19187 0.548495 7.92747 -2.19775e-07 -67.8541 19.1256 9.05205 180 -45.4604 -180 6.32202 -2.63356 -0.145494 12.6287 -9.17894 -22.5349 5.02061 -39.0483 -39.4109 -0 -0 31.1128 -4.26559e-06 -11.4276 6.94346 -1.39983 -5.21506e-06 -68.4687 -5.54025 -4.92762 -42.4317 -0 -0 28.6666 2.00984e-06 9.025 7.11386 1.12689 -5.35933e-06 -39.3306 
25.134 84.414 6.8645 9.27875 -62.9147 14.7445 0 -0 0 4.2534 8.78382 13.6529 -9.999 -10.006 -9.54164e-08 -29.8999 45.273 -96.7787 0 32.7259 0 -23.1216 3.51659 -0.719588 0.470505 7.64062 8.7088e-07 -67.7165 19.0809 9.17826 180 -45.5619 -180 6.33461 -2.62403 -0.145202 12.5695 -9.39594 -21.6964 5.1098 -38.8398 -39.6188 -0 -0 31.2486 -6.29127e-06 -11.2852 6.91964 -1.37718 -8.51072e-07 -68.4678 -5.52692 -4.7127 -42.632 -0 -0 28.9471 -3.07793e-06 9.13876 6.94606 1.11449 -1.72071e-06 -39.3109 
25.21 84.363 6.8711 9.13026 -63.2706 14.9094 0 -0 0 4.12997 8.53209 13.9337 -9.50476 -9.34278 3.79627e-06 -26.8958 44.2758 -90.8568 2.42975e-07 37.3296 7.19298e-07 -23.718 1.39525 -0.293002 0.359002 7.36371 1.55408e-07 -67.4824 18.9997 9.3 180 -45.6516 -180 6.34155 -2.6057 -0.144402 12.498 -9.56337 -20.9203 5.20749 -38.6225 -39.8585 -0 -0 31.4085 1.63732e-06 -11.1236 6.88274 -1.34981 -1.6068e-06 -68.4759 -5.53053 -4.45881 -42.8513 -0 -0 29.2478 -6.09817e-06 9.23522 6.76302 1.097 -3.78083e-06 -39.3003 
25.284 84.307 6.8759 8.98158 -63.6483 15.088 0 -0 0 3.98629 8.25555 14.2149 -9.05716 -8.70573 8.52491e-06 -23.9448 43.3334 -85.821 -0 41.8742 -0 -24.2216 -0.403703 0.0866001 0.216294 7.10053 -8.02286e-07 -67.1655 18.883 9.41706 180 -45.7288 -180 6.34713 -2.58075 -0.143104 12.4219 -9.68184 -20.2136 5.31307 -38.3944 -40.1255 -0 -0 31.5868 -7.97995e-06 -10.9491 6.8355 -1.31898 5.07274e-06 -68.487 -5.5489 -4.16891 -43.092 -0 -0 29.5688 3.73443e-06 9.3151 6.56585 1.07451 6.86598e-06 -39.2968 
25.359 84.248 6.8789 8.8341 -64.0479 15.2791 0 -0 0 3.82361 7.96043 14.4912 -8.62384 -8.07993 3.68254e-06 -21.0385 42.4492 -81.44 0 46.3509 0 -24.6486 -1.93417 0.422596 0.0470006 6.8501 -1.83259e-08 -66.7829 18.7347 9.52728 180 -45.7949 -180 6.35582 -2.55146 -0.1417 12.347 -9.75583 -19.5823 5.42832 -38.1502 -40.4229 -0 -0 31.7835 2.63719e-06 -10.7687 6.78011 -1.28629 -1.06295e-06 -68.5038 -5.57926 -3.84717 -43.3527 -0 -0 29.9061 -4.67643e-06 9.3806 6.355 1.04759 -1.08718e-05 -39.2951 
25.434 84.185 6.8802 8.67988 -64.4647 15.4931 0 -0 0 3.64546 7.65338 14.7551 -8.17626 -7.44303 7.20672e-06 -18.1697 41.5836 -77.5129 4.09056e-07 50.7604 8.62251e-07 -25.0096 -3.24708 0.720292 -0.143396 6.60806 1.29155e-07 -66.3552 18.5573 9.62608 180 -45.847 -180 6.3708 -2.51914 -0.140206 12.278 -9.79192 -19.0259 5.55298 -37.887 -40.7459 -0 -0 31.9921 -6.98767e-06 -10.5889 6.71965 -1.25308 4.79245e-06 -68.5227 -5.61791 -3.49809 -43.6383 -0 -0 30.2587 4.263e-06 9.43397 6.13135 1.01669 3.16571e-06 -39.2969 
